<svg xmlns="http://www.w3.org/2000/svg" xmlns:xlink="http://www.w3.org/1999/xlink" width="2000" zoomAndPan="magnify" viewBox="0 0 1500 1499.999933" height="2000" preserveAspectRatio="xMidYMid meet" version="1.0"><defs><clipPath id="5ee96273d3"><path d="M 470 1064 L 1145 1064 L 1145 1464.414062 L 470 1464.414062 Z M 470 1064 " clip-rule="nonzero"/></clipPath><clipPath id="8d448c8f77"><path d="M 35.664062 419 L 503 419 L 503 1008 L 35.664062 1008 Z M 35.664062 419 " clip-rule="nonzero"/></clipPath><clipPath id="c831bd2de3"><path d="M 1106 221 L 1464.414062 221 L 1464.414062 953 L 1106 953 Z M 1106 221 " clip-rule="nonzero"/></clipPath><clipPath id="972764ca30"><path d="M 634 35.664062 L 1186 35.664062 L 1186 595 L 634 595 Z M 634 35.664062 " clip-rule="nonzero"/></clipPath></defs><g clip-path="url(#5ee96273d3)"><path fill="#ffffff" d="M 587.890625 1445.671875 C 640.011719 1457.792969 694.234375 1464.398438 750.066406 1464.398438 C 896.078125 1464.398438 1031.804688 1420.488281 1144.9375 1345.304688 C 916.394531 1260.679688 691.222656 1166.902344 470.023438 1064.328125 C 506.523438 1192.28125 545.855469 1319.433594 587.890625 1445.671875 " fill-opacity="1" fill-rule="nonzero"/></g><path fill="#ffffff" d="M 576.683594 56.914062 C 385.242188 104.640625 224.492188 229.605469 129.175781 396.804688 C 370.730469 374.078125 613.203125 360.777344 855.921875 357.269531 C 765.089844 255.078125 671.980469 154.914062 576.683594 56.914062 " fill-opacity="1" fill-rule="nonzero"/><g clip-path="url(#8d448c8f77)"><path fill="#ffffff" d="M 101.964844 449.441406 C 59.503906 540.832031 35.664062 642.601562 35.664062 750 C 35.664062 840.785156 52.765625 927.511719 83.636719 1007.382812 C 215.609375 805.984375 355.351562 609.652344 502.816406 419.171875 C 368.96875 426.316406 235.320312 436.449219 101.964844 449.441406 " fill-opacity="1" fill-rule="nonzero"/></g><g clip-path="url(#c831bd2de3)"><path fill="#ffffff" d="M 1106.25 952.710938 C 1227.171875 886.300781 1346.554688 817.167969 1464.332031 745.355469 C 1463.015625 538.019531 1373.457031 351.644531 1231.214844 221.972656 C 1201.8125 448.125 1164.042969 673.230469 1117.902344 896.660156 C 1114.039062 915.34375 1110.222656 934.027344 1106.25 952.710938 " fill-opacity="1" fill-rule="nonzero"/></g><g clip-path="url(#972764ca30)"><path fill="#ffffff" d="M 1124.441406 594.675781 C 1147.992188 458.28125 1168.441406 321.351562 1185.765625 184.042969 C 1065.152344 91.046875 914.117188 35.597656 750.066406 35.597656 C 710.710938 35.597656 672.15625 38.921875 634.542969 45.039062 C 805.023438 221.613281 968.585938 404.929688 1124.441406 594.675781 " fill-opacity="1" fill-rule="nonzero"/></g><path fill="#ffffff" d="M 331.085938 733.835938 C 254.140625 841.679688 179.582031 951.171875 107.386719 1062.230469 C 191.789062 1235.609375 344.300781 1369.636719 530.09375 1429.730469 C 454.710938 1200.519531 388.1875 968.382812 331.085938 733.835938 " fill-opacity="1" fill-rule="nonzero"/><path fill="#ffffff" d="M 1193.53125 1309.855469 C 1345.0625 1189.671875 1446.5625 1009.367188 1462.144531 804.933594 C 1251.347656 932.398438 1035.484375 1051.558594 815.023438 1161.675781 C 940.078125 1213.890625 1066.292969 1263.269531 1193.53125 1309.855469 " fill-opacity="1" fill-rule="nonzero"/></svg>